<?xml version="1.0" encoding="UTF-8"?>
<svg width="60px" height="60px" viewBox="0 0 60 60" version="1.1" xmlns="http://www.w3.org/2000/svg" xmlns:xlink="http://www.w3.org/1999/xlink">
    <!-- Generator: Sketch 41.2 (35397) - http://www.bohemiancoding.com/sketch -->
    <title>Artboard 2</title>
    <desc>Created with Sketch.</desc>
    <defs></defs>
    <g id="Page-1" stroke="none" stroke-width="1" fill="none" fill-rule="evenodd">
        <g id="Artboard-2" fill="#FDFDFD">
            <path d="M50.553704,23.2176217 C50.1412637,15.7180411 43.8423969,9.75595996 36.1012093,9.75595996 C33.1018651,9.75595996 30.3221638,10.6589358 28.0159146,12.1939948 C25.4753798,7.825544 20.7579411,4.87500936 15.3498478,4.87500936 C14.2077054,4.87500936 13.0387177,5.00679503 11.8502062,5.28256874 C15.1375265,14.6369106 10.9155042,20.9406583 0.714317445,19.4666112 C0.699674594,26.8539299 6.07604168,32.8111301 12.9655034,33.9508321 C13.2193129,39.4931515 17.8366921,43.9226141 23.5425234,43.9226141 L48.6574547,43.9226141 C54.5292383,43.9226141 59.2857246,39.2466635 59.2857246,33.4822608 C59.2857246,28.3548222 55.5151903,24.0937523 50.553704,23.2176217 L50.553704,23.2176217 Z M13.9075269,29.169941 C10.7715162,28.7013697 8.0894338,26.7367871 6.67395813,23.983931 C13.7903841,23.6910739 19.032525,17.0383383 17.5389542,10.002448 C20.6115126,10.7101858 23.1081188,12.8822088 24.3185945,15.727803 C22.7688927,17.8632189 21.8024645,20.4330394 21.6487146,23.2176217 C18.1832396,23.830181 15.330324,26.1120254 13.9075269,29.169941 Z M48.6598952,39.0416635 L23.5425234,39.0416635 C20.3772269,39.0416635 17.7976445,36.5474978 17.7976445,33.4822608 C17.7976445,28.3133341 22.9324046,27.1443465 26.3100224,27.3517869 C26.1879986,24.0425024 26.6443675,14.6369106 36.1012093,14.6369106 C45.3042416,14.6369106 46.4219793,23.8399429 45.8923962,27.3493464 C49.5750734,27.0930965 54.404774,28.4158341 54.404774,33.4822608 C54.404774,36.5474978 51.8251916,39.0416635 48.6598952,39.0416635 Z M16.3821689,56.1249906 L12.9410987,52.6839205 L19.2619297,46.3630894 L22.7029999,49.8041596 L16.3821689,56.1249906 Z M34.790674,49.8041596 L31.3496039,46.3630894 L25.0287728,52.6839205 L28.469843,56.1249906 L34.790674,49.8041596 Z M46.6879911,49.8041596 L43.246921,46.3630894 L36.9260899,52.6839205 L40.3671601,56.1249906 L46.6879911,49.8041596 Z" id="Shape"></path>
        </g>
    </g>
</svg>