<?xml version="1.0" encoding="UTF-8"?>
<svg width="60px" height="60px" viewBox="0 0 60 60" version="1.1" xmlns="http://www.w3.org/2000/svg" xmlns:xlink="http://www.w3.org/1999/xlink">
    <!-- Generator: Sketch 41.2 (35397) - http://www.bohemiancoding.com/sketch -->
    <title>Artboard 2</title>
    <desc>Created with Sketch.</desc>
    <defs></defs>
    <g id="Page-1" stroke="none" stroke-width="1" fill="none" fill-rule="evenodd">
        <g id="Artboard-2" fill="#FDFDFD">
            <path d="M6.39016667,22.625 L0.5,22.625 L0.5,17.7083333 L6.39016667,17.7083333 L6.39016667,22.625 Z M25.0833333,6.74908333 L25.0833333,0.5 L20.1666667,0.5 L20.1666667,6.74908333 L25.0833333,6.74908333 Z M13.3005417,8.90258333 L8.7305,4.33254167 L5.25441667,7.808625 L9.82445833,12.3786667 L13.3005417,8.90258333 L13.3005417,8.90258333 Z M35.9712917,3.60241667 L31.3619167,8.21179167 L34.838,11.687875 L39.447375,7.0785 L35.9712917,3.60241667 L35.9712917,3.60241667 Z M7.79879167,29.8254583 L2.75183333,34.1840833 L5.95504167,37.913375 L11.002,33.55475 L7.79879167,29.8254583 Z M59.5,36.6915833 C59.5,42.4981667 54.7087083,47.2083333 48.7964167,47.2083333 L23.49525,47.2083333 C17.5829583,47.2083333 12.7916667,42.4981667 12.7916667,36.6915833 C12.7916667,34.7986667 13.310375,33.0286667 14.20275,31.497125 C11.8304583,29.2674167 10.3333333,26.1379583 10.3333333,22.625 C10.3333333,15.8350833 15.8350833,10.3333333 22.625,10.3333333 C25.8896667,10.3333333 28.827375,11.6313333 31.01775,13.716 C32.61075,13.126 34.3365,12.7916667 36.1458333,12.7916667 C43.9436667,12.7916667 50.288625,18.797375 50.7040833,26.3518333 C55.701875,27.234375 59.5,31.526625 59.5,36.6915833 Z M15.25,22.625 C15.25,24.7391667 16.1595833,26.6271667 17.5977083,27.9645 C18.7875417,27.1876667 20.1273333,26.6099583 21.5875833,26.3518333 C21.806375,22.3939167 23.6624167,18.8735833 26.4895,16.4054167 C25.361125,15.6974167 24.05575,15.25 22.625,15.25 C18.5589167,15.25 15.25,18.5589167 15.25,22.625 Z M54.5833333,36.6915833 C54.5833333,31.5880833 49.7182917,30.2556667 46.0086667,30.51625 C46.542125,26.9787083 45.4162083,17.7083333 36.1458333,17.7083333 C26.6197917,17.7083333 26.1600833,27.18275 26.283,30.5137917 C22.8806667,30.3072917 17.7083333,31.4848333 17.7083333,36.6915833 C17.7083333,39.77925 20.3067917,42.2916667 23.49525,42.2916667 L48.7939583,42.2916667 C51.984875,42.2916667 54.5833333,39.77925 54.5833333,36.6915833 L54.5833333,36.6915833 Z M16.2825,59.5 L12.81625,56.03375 L19.1833333,49.6666667 L22.6495833,53.1329167 L16.2825,59.5 Z M34.8257083,53.1329167 L31.3594583,49.6666667 L24.992375,56.03375 L28.458625,59.5 L34.8257083,53.1329167 Z M46.8100833,53.1329167 L43.3438333,49.6666667 L36.97675,56.03375 L40.443,59.5 L46.8100833,53.1329167 Z" id="Shape"></path>
        </g>
    </g>
</svg>