<?xml version="1.0" encoding="UTF-8"?>
<svg width="64px" height="64px" viewBox="0 0 64 64" version="1.1" xmlns="http://www.w3.org/2000/svg" xmlns:xlink="http://www.w3.org/1999/xlink">
    <!-- Generator: Sketch 41.2 (35397) - http://www.bohemiancoding.com/sketch -->
    <title>Artboard</title>
    <desc>Created with Sketch.</desc>
    <defs></defs>
    <g id="Page-1" stroke="none" stroke-width="1" fill="none" fill-rule="evenodd">
        <g id="Artboard" stroke="#B4C1C4">
            <g id="book" transform="translate(3.000000, 1.000000)">
                <path d="M57.1350087,9.3452181 L53.6814473,9.3452181 L53.6814473,21.8154108 L57.1350087,21.8154108 C57.7287027,21.8154108 58.2065539,21.3399442 58.2065539,20.749213 L58.2065539,10.411416 C58.2065539,9.82068472 57.7287027,9.3452181 57.1350087,9.3452181 Z" id="Shape"></path>
                <path d="M57.1350087,24.9707802 L53.6814473,24.9707802 L53.6814473,37.440973 L57.1350087,37.440973 C57.7287027,37.440973 58.2065539,36.9655063 58.2065539,36.3747751 L58.2065539,26.0369781 C58.2065539,25.4462469 57.7287027,24.9707802 57.1350087,24.9707802 Z" id="Shape"></path>
                <path d="M57.1350087,40.5963424 L53.6814473,40.5963424 L53.6814473,53.0665351 L57.1350087,53.0665351 C57.7287027,53.0665351 58.2065539,52.5910685 58.2065539,52.0003372 L58.2065539,41.6625402 C58.2065539,41.071809 57.7287027,40.5963424 57.1350087,40.5963424 Z" id="Shape"></path>
                <path d="M51.6252389,9.98637763 C51.6252389,4.8282852 47.4259399,0.649942171 42.2419777,0.649942171 L9.4584852,0.649942171 C4.27452304,0.649942171 0.0752240852,4.8282852 0.0752240852,9.98637763 L0.0752240852,52.6270887 C0.0752240852,57.7779771 4.27452304,61.9563201 9.4584852,61.9563201 L42.2492179,61.9563201 C47.4259399,61.9563201 51.6252389,57.7779771 51.6252389,52.6198846 L51.6252389,9.98637763 Z M46.6295211,52.317315 C46.6295211,54.9323814 44.500911,57.0575731 41.8654889,57.0575731 L9.97977749,57.0575731 C7.35159555,57.0575731 5.21574522,54.9395854 5.21574522,52.317315 L5.21574522,10.5771089 C5.21574522,7.96204248 7.34435538,5.83685076 9.97977749,5.83685076 L41.872729,5.83685076 C44.500911,5.83685076 46.6367613,7.95483844 46.6367613,10.5771089 L46.6367613,52.317315 L46.6295211,52.317315 Z" id="Shape"></path>
                <path d="M39.6789573,24.1567237 C35.8054661,27.1536043 24.597682,22.1756128 23.6057786,33.817341 C22.309788,27.657887 15.4026653,29.9559757 12.463156,28.1837819 C11.8839424,27.830784 12.0359859,28.3134547 12.0359859,28.4143112 C12.0359859,28.9330021 13.0713303,40.5026898 23.5044162,37.7579507 L23.5116564,37.7579507 C22.8962419,39.2347789 22.0346616,41.0934211 21.9839804,41.6913564 C22.5921547,42.2100473 22.9179624,42.7431462 23.9967478,42.8728189 C23.9967478,42.8728189 23.5912982,40.2793646 24.3153153,37.5490336 C38.4408882,41.1294413 40.0337257,26.4836286 40.301612,24.4088651 C40.3522932,23.7677056 40.1133676,23.7821137 39.6789573,24.1567237 Z" id="Shape"></path>
            </g>
        </g>
    </g>
</svg>