<?xml version="1.0" encoding="UTF-8"?>
<svg width="64px" height="64px" viewBox="0 0 64 64" version="1.1" xmlns="http://www.w3.org/2000/svg" xmlns:xlink="http://www.w3.org/1999/xlink">
    <!-- Generator: Sketch 41.2 (35397) - http://www.bohemiancoding.com/sketch -->
    <title>Artboard</title>
    <desc>Created with Sketch.</desc>
    <defs></defs>
    <g id="Page-1" stroke="none" stroke-width="1" fill="none" fill-rule="evenodd">
        <g id="Artboard" stroke="#B4C1C4">
            <path d="M57.8530223,22.3807464 L35.0981192,2.06445633 C33.4078694,0.645181225 30.9426436,0.645181225 29.2523939,2.06445633 L6.49080989,22.3807464 C2.90988561,25.3925414 0.838828653,29.8236116 0.838828653,34.4945592 L0.838828653,53.5514925 C0.838828653,58.7688277 5.08115499,63 10.312244,63 L28.5308644,63 C28.6711618,56.5699508 27.9295898,51.9256563 29.599797,48.9271877 C29.2791172,48.7006368 28.9517566,48.4674226 28.624396,48.2142185 C28.624396,48.2142185 14.3474646,59.5684194 14.3474646,35.2608345 C21.2688034,33.501733 26.3729566,37.5663237 28.6912043,42.8236385 C30.2879224,35.3807733 39.5208279,27.8579489 48.0322039,30.3166931 C48.3194795,39.6186088 45.1995324,58.295736 31.2499617,49.9999731 C30.2144332,52.0122787 30.6620488,54.9774309 30.6286446,63 L54.0315882,63 C59.2626772,63 63.5050036,58.7688277 63.5050036,53.5514925 L63.5050036,34.4945592 C63.5050036,29.8236116 61.4339466,25.3925414 57.8530223,22.3807464 Z" id="Shape"></path>
        </g>
    </g>
</svg>