<?xml version="1.0" encoding="UTF-8"?>
<svg width="60px" height="60px" viewBox="0 0 60 60" version="1.1" xmlns="http://www.w3.org/2000/svg" xmlns:xlink="http://www.w3.org/1999/xlink">
    <!-- Generator: Sketch 41.2 (35397) - http://www.bohemiancoding.com/sketch -->
    <title>Artboard 2</title>
    <desc>Created with Sketch.</desc>
    <defs></defs>
    <g id="Page-1" stroke="none" stroke-width="1" fill="none" fill-rule="evenodd">
        <g id="Artboard-2" fill="#FDFDFD">
            <path d="M58.6900954,51.1035659 L45.1336435,37.547114 C47.3973394,33.8879009 48.7092541,29.5791614 48.7092541,24.9553052 C48.7092541,11.726832 37.9824222,1 24.7539489,1 C11.5254757,1 0.798643729,11.7332629 0.798643729,24.9617362 C0.798643729,38.1902094 11.5254757,48.9106104 24.7539489,48.9106104 C29.6607672,48.9106104 34.2267448,47.4314909 38.0274389,44.8976949 L51.4617026,58.3319586 C52.1498148,59.0200708 53.2623699,59.0200708 53.950482,58.3319586 L58.6900954,53.5923452 C59.3717766,52.9042331 59.3717766,51.791678 58.6900954,51.1035659 Z M8.57366762,24.9617362 C8.57366762,16.0227095 15.8149223,8.78145485 24.7539489,8.78145485 C33.6929756,8.78145485 40.9277993,16.0227095 40.9277993,24.9617362 C40.9277993,33.9007628 33.6865446,41.1355865 24.7539489,41.1355865 C15.8213532,41.1355865 8.57366762,33.8943318 8.57366762,24.9617362 Z" id="Shape"></path>
        </g>
    </g>
</svg>