<?xml version="1.0" encoding="UTF-8"?>
<svg width="64px" height="44px" viewBox="0 0 64 44" version="1.1" xmlns="http://www.w3.org/2000/svg" xmlns:xlink="http://www.w3.org/1999/xlink">
    <!-- Generator: Sketch 41.2 (35397) - http://www.bohemiancoding.com/sketch -->
    <title>Shape</title>
    <desc>Created with Sketch.</desc>
    <defs></defs>
    <g id="Page-1" stroke="none" stroke-width="1" fill="none" fill-rule="evenodd">
        <g id="Artboard" transform="translate(0.000000, -10.000000)" stroke="#B4C1C4">
            <path d="M61.625376,11.5792206 C53.0899238,18.25251 28.3929517,7.16779139 26.2072378,33.0909539 C23.3514509,19.3754193 8.13122395,24.4926772 1.65385271,20.5464532 C0.377523405,19.7604167 0.712559848,20.8352013 0.712559848,21.0597832 C0.712559848,22.2147755 2.99399848,47.9775224 25.9838801,41.8656877 L25.9998342,41.8656877 C24.6437344,45.1542077 22.7451945,49.2929304 22.6335157,50.62438 C23.9736615,51.7793724 24.6915967,52.9664479 27.06876,53.255196 C27.06876,53.255196 26.1753295,47.480234 27.7707412,41.4004824 C58.8972221,49.3731382 62.4071277,16.7606448 62.99743,12.1406753 C63.1091089,10.7129764 62.582623,10.7450595 61.625376,11.5792206 Z" id="Shape"></path>
        </g>
    </g>
</svg>