<?xml version="1.0" encoding="UTF-8"?>
<svg width="64px" height="64px" viewBox="0 0 64 64" version="1.1" xmlns="http://www.w3.org/2000/svg" xmlns:xlink="http://www.w3.org/1999/xlink">
    <!-- Generator: Sketch 41.2 (35397) - http://www.bohemiancoding.com/sketch -->
    <title>Artboard</title>
    <desc>Created with Sketch.</desc>
    <defs></defs>
    <g id="Page-1" stroke="none" stroke-width="1" fill="none" fill-rule="evenodd">
        <g id="Artboard" stroke="#B4C1C4">
            <path d="M62.7891984,58.6353539 C61.7926451,54.5702184 58.8609245,38.1259413 43.3332342,32.8320783 C43.1130654,32.7516943 42.8928967,32.6827937 42.6843158,32.6138931 C46.7748193,29.3640813 49.3820807,24.3687877 49.3820807,18.764872 C49.3820807,8.95801958 41.3633033,1 31.4557099,1 C21.5597043,1 13.5293391,8.94653614 13.5293391,18.764872 C13.5293391,24.5065889 16.2756544,29.6052334 20.5399754,32.8550452 C5.07022419,38.1603916 2.13850355,54.5817018 1.1419503,58.6353539 C0.145397038,62.7004895 4.72258933,61.9310994 4.72258933,61.9310994 L31.9655743,62 L59.2085593,61.9310994 C59.2085593,61.9310994 63.7857516,62.7004895 62.7891984,58.6353539 Z" id="Shape"></path>
        </g>
    </g>
</svg>